# xmcd CD database file
# Copyright (C) 1993-1998 Ti Kan
# 
# Track frame offsets:
#     150
#     11082
#     34657
#     39472
#     52547
#     70417
#     89170
#     106450
#     127870
#     152570
#     165252
#     182012
#     206065
#     213892
# 
# Disc length: 3350 seconds
# 
# Revision: 1
# Processed by: cddbd v1.4b41PL1 Copyright (c) Steve Scherf et al.
# Submitted via: DiscPlay 4.0.4
# 
DISCID=b10d140e
DTITLE=Harvester - Me Climb Mountain
DYEAR=1900
DGENRE=
TTITLE0=She Don't Mind That
TTITLE1=Great Springwaters Of America
TTITLE2=Shasta County
TTITLE3=My Buffalo Song
TTITLE4=It's Been A Long Day
TTITLE5=Wander
TTITLE6=Splinters
TTITLE7=Dancer On A Storm
TTITLE8=Kahiltna Strip
TTITLE9=Road Soda
TTITLE10=Pick And Choose
TTITLE11=Little Shearwater
TTITLE12=Stem
TTITLE13=Pequod
EXTD=
EXTT0=
EXTT1=
EXTT2=
EXTT3=
EXTT4=
EXTT5=
EXTT6=
EXTT7=
EXTT8=
EXTT9=
EXTT10=
EXTT11=
EXTT12=
EXTT13=
PLAYORDER=
